<svg width="24" height="24" viewBox="0 0 24 24" fill="none" xmlns="http://www.w3.org/2000/svg">
<path fill-rule="evenodd" clip-rule="evenodd" d="M16.68 6.88462C16.68 4.46306 14.5847 2.5 12 2.5C9.41531 2.5 7.32001 4.46306 7.32001 6.88462V12C7.32001 14.4216 9.41531 16.3846 12 16.3846C14.5847 16.3846 16.68 14.4216 16.68 12V6.88462ZM20 11.5C20 10.9477 19.5523 10.5 19 10.5C18.4477 10.5 18 10.9477 18 11.5L17.9992 11.5992C17.9462 14.8672 15.2806 17.5 12 17.5C8.68629 17.5 6 14.8137 6 11.5C6 10.9477 5.55228 10.5 5 10.5C4.44772 10.5 4 10.9477 4 11.5C4 15.5796 7.05369 18.946 11 19.4381V19.8999H9.39998C8.95815 19.8999 8.59998 20.2581 8.59998 20.6999C8.59998 21.1417 8.95815 21.4999 9.39998 21.4999H14.6C15.0418 21.4999 15.4 21.1417 15.4 20.6999C15.4 20.2581 15.0418 19.8999 14.6 19.8999H13V19.4381C16.9463 18.946 20 15.5796 20 11.5Z" fill="#41464F"/>
</svg>
