<svg width="24" height="24" viewBox="0 0 24 24" fill="none" xmlns="http://www.w3.org/2000/svg">
<path fill-rule="evenodd" clip-rule="evenodd" d="M16.2088 17.3619C16.2088 18.0442 15.6913 18.5994 15.0555 18.5994H2.75342C2.11757 18.5994 1.6001 18.0442 1.6001 17.3619V5.63689C1.6001 4.95462 2.11757 4.39941 2.75342 4.39941H15.0555C15.6913 4.39941 16.2088 4.95462 16.2088 5.63689V17.3619ZM21.168 6.01227L17.8349 8.23782V14.7598L21.1455 16.9681C21.1811 16.9998 21.3741 17.1566 21.6745 17.1566C22.0747 17.1566 22.4001 16.7978 22.4001 16.3566V6.64228C22.4001 6.20107 22.0746 5.84229 21.6745 5.84229C21.3741 5.84229 21.1811 5.99907 21.168 6.01227ZM4.60007 8.8999C5.15235 8.8999 5.60007 8.45219 5.60007 7.8999C5.60007 7.34762 5.15235 6.8999 4.60007 6.8999C4.04778 6.8999 3.60007 7.34762 3.60007 7.8999C3.60007 8.45219 4.04778 8.8999 4.60007 8.8999Z" fill="#41464F"/>
</svg>
